<svg width="49" height="49" viewBox="0 0 49 49" fill="none" xmlns="http://www.w3.org/2000/svg">
<path d="M24.5 48.2344C37.6081 48.2344 48.2344 37.6081 48.2344 24.5C48.2344 11.3919 37.6081 0.765625 24.5 0.765625C11.3919 0.765625 0.765625 11.3919 0.765625 24.5C0.765625 37.6081 11.3919 48.2344 24.5 48.2344Z" stroke="white" stroke-width="2" stroke-linejoin="round"/>
<path d="M4.59374 24.5C4.59359 28.2798 5.66958 31.9815 7.69587 35.1722C9.72216 38.363 12.615 40.9109 16.0361 42.518C19.4572 44.1251 23.2652 44.725 27.0147 44.2475C30.7642 43.77 34.3002 42.2349 37.2094 39.8217L9.1783 11.7906C6.20948 15.3598 4.58706 19.8575 4.59374 24.5V24.5Z" stroke="white" stroke-width="2" stroke-linejoin="round"/>
<path d="M44.4062 24.5C44.4064 20.7202 43.3304 17.0185 41.3041 13.8278C39.2778 10.637 36.385 8.08909 32.9639 6.48198C29.5428 4.87486 25.7348 4.27497 21.9853 4.75246C18.2358 5.22994 14.6997 6.76507 11.7906 9.17831L39.8217 37.2094C42.791 33.6405 44.4135 29.1426 44.4062 24.5Z" stroke="white" stroke-width="2" stroke-linejoin="round"/>
<path d="M20.7484 18.1315C21.1897 17.7765 21.7466 17.597 22.3121 17.6275C22.8777 17.658 23.412 17.8964 23.8125 18.2969C24.213 18.6974 24.4514 19.2317 24.4819 19.7972C24.5124 20.3628 24.3329 20.9197 23.9779 21.3609" stroke="white" stroke-width="2" stroke-linejoin="round"/>
<path d="M30.6316 22.806C31.4053 22.4647 31.6868 21.404 31.2602 20.4367C30.8337 19.4695 29.8606 18.9621 29.0868 19.3033C28.313 19.6446 28.0316 20.7053 28.4581 21.6726C28.8847 22.6398 29.8578 23.1472 30.6316 22.806Z" stroke="white" stroke-width="2" stroke-linejoin="round"/>
<path d="M20.5328 27.5126C20.8489 26.7282 20.3103 25.7721 19.3298 25.3769C18.3493 24.9818 17.2982 25.2974 16.9821 26.0818C16.6661 26.8662 17.2047 27.8224 18.1852 28.2175C19.1657 28.6126 20.2167 28.297 20.5328 27.5126Z" stroke="white" stroke-width="2" stroke-linejoin="round"/>
<path d="M33.075 30.9045C34.1465 29.4751 34.8418 27.7994 35.097 26.0312H39.8125V26.4141C39.8125 26.7186 39.9335 27.0108 40.1489 27.2261C40.3642 27.4415 40.6564 27.5625 40.9609 27.5625C41.2655 27.5625 41.5576 27.4415 41.773 27.2261C41.9884 27.0108 42.1094 26.7186 42.1094 26.4141V22.5859C42.1094 22.2814 41.9884 21.9892 41.773 21.7739C41.5576 21.5585 41.2655 21.4375 40.9609 21.4375C40.6564 21.4375 40.3642 21.5585 40.1489 21.7739C39.9335 21.9892 39.8125 22.2814 39.8125 22.5859V22.9688H35.097C34.8279 21.1084 34.0714 19.3523 32.9043 17.8789L35.0572 15.7259L35.3275 15.9962C35.4334 16.1059 35.5601 16.1934 35.7002 16.2536C35.8404 16.3138 35.9911 16.3454 36.1435 16.3468C36.296 16.3481 36.4473 16.319 36.5884 16.2613C36.7295 16.2035 36.8578 16.1183 36.9656 16.0104C37.0734 15.9026 37.1587 15.7744 37.2164 15.6332C37.2742 15.4921 37.3032 15.3409 37.3019 15.1884C37.3006 15.0359 37.2689 14.8852 37.2087 14.7451C37.1485 14.605 37.061 14.4783 36.9514 14.3723L34.2449 11.6658C34.0283 11.4566 33.7382 11.3409 33.4371 11.3435C33.1359 11.3461 32.8479 11.4669 32.635 11.6798C32.422 11.8927 32.3013 12.1808 32.2986 12.4819C32.296 12.783 32.4118 13.0731 32.621 13.2897L32.8913 13.56L30.6863 15.765C29.3048 14.7828 27.709 14.1444 26.0313 13.903V9.1875H26.4141C26.7186 9.1875 27.0108 9.0665 27.2261 8.85113C27.4415 8.63576 27.5625 8.34365 27.5625 8.03906C27.5625 7.73448 27.4415 7.44237 27.2261 7.22699C27.0108 7.01162 26.7186 6.89063 26.4141 6.89062H22.5859C22.2814 6.89063 21.9892 7.01162 21.7739 7.22699C21.5585 7.44237 21.4375 7.73448 21.4375 8.03906C21.4375 8.34365 21.5585 8.63576 21.7739 8.85113C21.9892 9.0665 22.2814 9.1875 22.5859 9.1875H22.9688V13.903C21.291 14.1444 19.6952 14.7828 18.3138 15.765" stroke="white" stroke-width="2" stroke-linejoin="round"/>
<path d="M15.7412 18.3551C14.7728 19.7263 14.1429 21.3073 13.903 22.9688H9.1875V22.5859C9.1875 22.2814 9.0665 21.9893 8.85113 21.7739C8.63576 21.5585 8.34365 21.4375 8.03906 21.4375C7.73448 21.4375 7.44237 21.5585 7.22699 21.7739C7.01162 21.9893 6.89063 22.2814 6.89062 22.5859V26.4141C6.89063 26.7187 7.01162 27.0108 7.22699 27.2261C7.44237 27.4415 7.73448 27.5625 8.03906 27.5625C8.34365 27.5625 8.63576 27.4415 8.85113 27.2261C9.0665 27.0108 9.1875 26.7187 9.1875 26.4141V26.0313H13.903C14.1444 27.709 14.7828 29.3048 15.765 30.6863L13.9428 32.5084L13.6725 32.2382C13.4559 32.029 13.1658 31.9132 12.8647 31.9158C12.5636 31.9185 12.2756 32.0392 12.0626 32.2522C11.8497 32.4651 11.7289 32.7531 11.7263 33.0543C11.7237 33.3554 11.8394 33.6455 12.0486 33.8621L14.7551 36.5686C14.9717 36.7778 15.2618 36.8935 15.5629 36.8909C15.8641 36.8883 16.1521 36.7675 16.365 36.5546C16.578 36.3416 16.6987 36.0536 16.7014 35.7525C16.704 35.4514 16.5882 35.1613 16.379 34.9447L16.1088 34.6744L17.8789 32.9043C19.3523 34.0714 21.1084 34.8279 22.9688 35.097V39.8125H22.5859C22.2814 39.8125 21.9892 39.9335 21.7739 40.1489C21.5585 40.3643 21.4375 40.6564 21.4375 40.9609C21.4375 41.2655 21.5585 41.5576 21.7739 41.773C21.9892 41.9884 22.2814 42.1094 22.5859 42.1094H26.4141C26.7186 42.1094 27.0108 41.9884 27.2261 41.773C27.4415 41.5576 27.5625 41.2655 27.5625 40.9609C27.5625 40.6564 27.4415 40.3643 27.2261 40.1489C27.0108 39.9335 26.7186 39.8125 26.4141 39.8125H26.0312V35.097C27.8018 34.8419 29.4796 34.1449 30.9098 33.0704" stroke="white" stroke-width="2" stroke-linejoin="round"/>
<path d="M24.8841 32.2455C25.5135 31.6806 25.6802 30.84 25.2565 30.368C24.8329 29.896 23.9792 29.9713 23.3499 30.5362C22.7205 31.1011 22.5538 31.9417 22.9775 32.4137C23.4012 32.8857 24.2548 32.8104 24.8841 32.2455Z" stroke="white" stroke-width="2" stroke-linejoin="round"/>
</svg>
