<svg width="49" height="49" viewBox="0 0 49 49" fill="none" xmlns="http://www.w3.org/2000/svg">
<path d="M21.4375 1.53125C21.116 1.53108 20.8026 1.63197 20.5418 1.81984C20.2809 2.00772 20.0857 2.27292 19.984 2.57789L18.4288 7.24341C17.8009 7.46449 17.1868 7.71795 16.5865 8.00605L12.1872 5.80787C11.8997 5.6642 11.5743 5.6147 11.2571 5.66622C10.9399 5.71774 10.6469 5.86779 10.4197 6.09505L6.08911 10.4255C5.86184 10.6528 5.71181 10.9458 5.66029 11.263C5.60876 11.5803 5.65834 11.9056 5.802 12.1931L7.99719 16.5835C7.70843 17.1867 7.4529 17.8037 7.23157 18.4348L2.57202 19.9899C2.26706 20.0916 2.00185 20.2868 1.81398 20.5477C1.62611 20.8085 1.5251 21.1218 1.52527 21.4433V27.5684C1.5251 27.8899 1.62611 28.2033 1.81398 28.4642C2.00185 28.7251 2.26706 28.9202 2.57202 29.0219L7.24652 30.5801C7.46684 31.2042 7.71983 31.8136 8.00616 32.4103L5.802 36.8187C5.65835 37.1062 5.60878 37.4316 5.66031 37.7488C5.71183 38.066 5.86185 38.3589 6.08911 38.5861L10.4197 42.9198C10.6469 43.147 10.9399 43.2969 11.2571 43.3484C11.5743 43.4 11.8997 43.3505 12.1872 43.2068L16.5865 41.0056C17.1861 41.2921 17.7987 41.545 18.4258 41.7652L19.984 46.4368C20.0857 46.7417 20.2809 47.0069 20.5418 47.1948C20.8026 47.3827 21.116 47.4837 21.4375 47.4836H27.5625C27.884 47.4837 28.1974 47.3827 28.4582 47.1948C28.7191 47.0069 28.9142 46.7417 29.016 46.4368L30.5742 41.7562C31.1966 41.5369 31.8063 41.2846 32.4015 40.9996L36.8128 43.2068C37.1003 43.3505 37.4257 43.4 37.7429 43.3484C38.0601 43.2969 38.3531 43.147 38.5803 42.9198L42.9109 38.5861C43.1381 38.3589 43.2882 38.066 43.3397 37.7488C43.3912 37.4316 43.3416 37.1062 43.198 36.8187L40.9998 32.4224C41.288 31.8212 41.5413 31.2059 41.7624 30.5771L46.428 29.0219C46.7329 28.9202 46.9981 28.7251 47.186 28.4642C47.3739 28.2033 47.4749 27.8899 47.4747 27.5684V21.4435C47.4749 21.122 47.3739 20.8085 47.186 20.5477C46.9981 20.2868 46.7329 20.0916 46.428 19.9899L41.7594 18.4348C41.5384 17.8079 41.2844 17.1947 40.9968 16.5955L43.198 12.1931C43.3417 11.9056 43.3912 11.5803 43.3397 11.263C43.2882 10.9458 43.1382 10.6528 42.9109 10.4255L38.5803 6.09505C38.3531 5.86779 38.0601 5.71774 37.7429 5.66622C37.4257 5.6147 37.1003 5.66438 36.8128 5.80804L32.4254 8.00022C31.8202 7.71085 31.2014 7.45618 30.5682 7.23458L29.016 2.57806C28.9143 2.27309 28.7191 2.00773 28.4583 1.81984C28.1974 1.63196 27.884 1.53109 27.5625 1.53125H21.4375ZM22.5411 4.59362H26.4589L27.8795 8.8584C27.9574 9.09209 28.0905 9.30369 28.2675 9.47497C28.4445 9.64626 28.6602 9.7722 28.8964 9.84234C29.893 10.1387 30.8573 10.535 31.7734 11.0267C31.9892 11.1431 32.2298 11.2059 32.4749 11.2099C32.72 11.2139 32.9626 11.159 33.1821 11.0499L37.1956 9.04314L39.965 11.8125L37.9493 15.844C37.8393 16.0637 37.7837 16.3067 37.7874 16.5524C37.791 16.7981 37.8537 17.0393 37.9702 17.2557C38.4608 18.1657 38.8599 19.1217 39.1575 20.1118C39.2278 20.347 39.3536 20.5619 39.5243 20.7384C39.695 20.9149 39.9057 21.0477 40.1385 21.1257L44.4122 22.5493V26.467L40.1415 27.8907C39.9087 27.9687 39.698 28.1014 39.5273 28.2778C39.3566 28.4543 39.2308 28.6692 39.1605 28.9045C38.8632 29.8964 38.4641 30.8548 37.9732 31.7666C37.8567 31.9829 37.794 32.2242 37.7904 32.4699C37.7867 32.7156 37.8422 32.9586 37.9523 33.1783L39.965 37.2037L37.1956 39.9761L33.1551 37.9544C32.9353 37.8447 32.6922 37.7896 32.4465 37.7936C32.2008 37.7977 31.9597 37.8607 31.7435 37.9775C30.8367 38.4654 29.8855 38.8623 28.8993 39.1589C28.6641 39.2292 28.4492 39.355 28.2727 39.5257C28.0963 39.6965 27.9635 39.907 27.8855 40.1398L26.4589 44.4256H22.5411L21.1145 40.1458C21.0369 39.9125 20.9043 39.7012 20.7278 39.53C20.5513 39.3587 20.3362 39.2324 20.1006 39.1619C19.1108 38.8662 18.1518 38.4723 17.2415 37.9835C17.0257 37.8672 16.7851 37.8044 16.54 37.8004C16.2949 37.7963 16.0524 37.8512 15.8329 37.9604L11.8044 39.9761L9.03497 37.2037L11.0537 33.1663C11.1637 32.9466 11.2192 32.7035 11.2156 32.4579C11.212 32.2122 11.1492 31.9711 11.0328 31.7547C10.5436 30.8472 10.1457 29.8916 9.84843 28.9045C9.77776 28.6698 9.65178 28.4555 9.48108 28.2796C9.31038 28.1037 9.09995 27.9712 8.86748 27.8935L4.58775 26.467V22.5493L8.85551 21.1257C9.08888 21.0481 9.30013 20.9154 9.4714 20.7389C9.64266 20.5624 9.76891 20.3473 9.83946 20.1118C10.1364 19.1179 10.5325 18.1572 11.0238 17.2437C11.1403 17.0273 11.203 16.7861 11.2066 16.5404C11.2103 16.2947 11.1548 16.0517 11.0447 15.832L9.03497 11.8125L11.8044 9.04314L15.8329 11.0559C16.0528 11.1656 16.2958 11.2206 16.5415 11.2166C16.7872 11.2126 17.0283 11.1496 17.2445 11.0327C18.1554 10.542 19.1126 10.1428 20.1036 9.84534C20.3389 9.77508 20.5538 9.64941 20.7302 9.47868C20.9067 9.30796 21.0395 9.09722 21.1175 8.86441L22.5411 4.59362Z" fill="white"/>
<path d="M24.4947 13.7783C18.5931 13.7783 13.779 18.6036 13.779 24.5053C13.779 30.4069 18.5931 35.221 24.4947 35.221C30.3964 35.221 35.2218 30.4069 35.2218 24.5053C35.2218 18.6036 30.3964 13.7783 24.4947 13.7783ZM24.4947 16.8415C28.7413 16.8415 32.1585 20.2587 32.1585 24.5053C32.1585 28.7519 28.7413 32.1578 24.4947 32.1578C20.2482 32.1578 16.8422 28.7519 16.8422 24.5053C16.8422 20.2587 20.2482 16.8415 24.4947 16.8415Z" fill="white"/>
</svg>
