<svg width="49" height="49" viewBox="0 0 49 49" fill="none" xmlns="http://www.w3.org/2000/svg">
<g clip-path="url(#clip0)">
<path d="M24.4809 4.90001C24.2892 4.90255 24.1007 4.95008 23.9306 5.03878L0.655632 17.2888C0.457069 17.3924 0.290694 17.5484 0.174592 17.7399C0.0584903 17.9314 -0.00289685 18.1511 -0.00289685 18.375C-0.00289685 18.599 0.0584903 18.8186 0.174592 19.0101C0.290694 19.2016 0.457069 19.3577 0.655632 19.4612L23.9306 31.7112C24.1063 31.8034 24.3017 31.8516 24.5001 31.8516C24.6984 31.8516 24.8939 31.8034 25.0695 31.7112L48.3445 19.4612C48.5431 19.3577 48.7094 19.2016 48.8255 19.0101C48.9416 18.8186 49.003 18.599 49.003 18.375C49.003 18.1511 48.9416 17.9314 48.8255 17.7399C48.7094 17.5484 48.5431 17.3924 48.3445 17.2888L25.0695 5.03878C24.888 4.94407 24.6856 4.89636 24.4809 4.90001ZM24.5001 7.5127L45.1432 18.375L24.5001 29.2421L3.8569 18.375L24.5001 7.5127ZM1.20592 24.4904C0.929774 24.4899 0.661556 24.5828 0.444777 24.7538C0.227998 24.9249 0.0753733 25.1642 0.0116608 25.4329C-0.0520518 25.7016 -0.0231154 25.9839 0.0937764 26.2341C0.210668 26.4843 0.408658 26.6877 0.655632 26.8112L23.9306 39.0612C24.1063 39.1534 24.3017 39.2016 24.5001 39.2016C24.6984 39.2016 24.8939 39.1534 25.0695 39.0612L48.3445 26.8112C48.4871 26.7365 48.6137 26.6343 48.7168 26.5106C48.82 26.387 48.8978 26.2442 48.9458 26.0904C48.9938 25.9367 49.011 25.775 48.9965 25.6146C48.982 25.4542 48.9361 25.2982 48.8613 25.1556C48.7865 25.0129 48.6844 24.8864 48.5607 24.7832C48.437 24.6801 48.2942 24.6023 48.1405 24.5543C47.9868 24.5063 47.8251 24.489 47.6647 24.5035C47.5043 24.518 47.3483 24.564 47.2056 24.6388L24.5001 36.5921L1.7945 24.6388C1.61386 24.5407 1.41145 24.4897 1.20592 24.4904ZM1.20592 31.8404C0.929775 31.8399 0.661557 31.9328 0.444777 32.1038C0.227998 32.2749 0.0753743 32.5142 0.0116618 32.7829C-0.0520508 33.0516 -0.0231145 33.3339 0.0937771 33.5841C0.210669 33.8343 0.408659 34.0377 0.655632 34.1612L23.9306 46.4112C24.1063 46.5034 24.3017 46.5516 24.5001 46.5516C24.6984 46.5516 24.8939 46.5034 25.0695 46.4112L48.3445 34.1612C48.4871 34.0865 48.6137 33.9843 48.7168 33.8606C48.82 33.737 48.8978 33.5942 48.9458 33.4404C48.9938 33.2867 49.011 33.125 48.9965 32.9646C48.982 32.8042 48.9361 32.6482 48.8613 32.5056C48.7865 32.3629 48.6844 32.2364 48.5607 32.1332C48.437 32.0301 48.2942 31.9523 48.1405 31.9043C47.9868 31.8563 47.8251 31.8391 47.6647 31.8535C47.5043 31.868 47.3483 31.914 47.2056 31.9888L24.5001 43.9421L1.7945 31.9888C1.61386 31.8907 1.41145 31.8397 1.20592 31.8404Z" fill="white"/>
</g>
<defs>
<clipPath id="clip0">
<rect width="49" height="49" fill="white"/>
</clipPath>
</defs>
</svg>
